<svg xmlns="http://www.w3.org/2000/svg" xmlns:xlink="http://www.w3.org/1999/xlink" version="1.1" x="0px" y="0px" viewBox="0 0 90 112.5" enable-background="new 0 0 90 90" xml:space="preserve"><path d="M45.3,60.1h-0.5c-7.6,0-13.8-6.2-13.8-13.8V24.6c0-7.6,6.2-13.8,13.8-13.8h0.5c7.6,0,13.8,6.2,13.8,13.8v21.7  C59.1,53.9,52.9,60.1,45.3,60.1z M44.8,12.8c-6.5,0-11.8,5.3-11.8,11.8v21.7c0,6.5,5.3,11.8,11.8,11.8h0.5c6.5,0,11.8-5.3,11.8-11.8  V24.6c0-6.5-5.3-11.8-11.8-11.8H44.8z"/><path d="M45,68.6c-10.4,0-18.8-8.4-18.8-18.8V35.4c0-0.6,0.4-1,1-1s1,0.4,1,1v14.4c0,9.3,7.5,16.8,16.8,16.8s16.8-7.5,16.8-16.8  V35.4c0-0.6,0.4-1,1-1s1,0.4,1,1v14.4C63.8,60.2,55.4,68.6,45,68.6z"/><rect x="44" y="68.1" width="2" height="10.2"/><path d="M57.9,79.2H32.1c-0.6,0-1-0.4-1-1s0.4-1,1-1h25.8c0.6,0,1,0.4,1,1S58.4,79.2,57.9,79.2z"/><text x="0" y="105" fill="#000000" font-size="5px" font-weight="bold" font-family="'Helvetica Neue', Helvetica, Arial-Unicode, Arial, Sans-serif">Created by ignation</text><text x="0" y="110" fill="#000000" font-size="5px" font-weight="bold" font-family="'Helvetica Neue', Helvetica, Arial-Unicode, Arial, Sans-serif">from the Noun Project</text></svg>