<svg xmlns="http://www.w3.org/2000/svg" xmlns:xlink="http://www.w3.org/1999/xlink" version="1.1" x="0px" y="0px" viewBox="0 0 32 40" enable-background="new 0 0 32 32" xml:space="preserve"><g display="none"><g display="inline"><g><path fill="#000000" d="M23.667,28.7c0.316,0,0.583,0.267,0.583,0.583s-0.267,0.583-0.583,0.583H8.333     c-0.316,0-0.583-0.267-0.583-0.583S8.017,28.7,8.333,28.7H23.667 M23.667,27.7H8.333c-0.871,0-1.583,0.713-1.583,1.583     s0.713,1.583,1.583,1.583h15.333c0.871,0,1.583-0.713,1.583-1.583S24.538,27.7,23.667,27.7L23.667,27.7z"/></g></g><polyline display="inline" fill="#000000" stroke="#414753" stroke-miterlimit="10" points="10,28.1 10,24.683 22,24.683 22,27.7  "/><g display="inline"><g><path fill="#000000" d="M30,2.133c0.551,0,1,0.449,1,1v17c0,0.551-0.449,1-1,1H2c-0.551,0-1-0.449-1-1v-17c0-0.551,0.449-1,1-1     H30 M30,1.133H2c-1.1,0-2,0.9-2,2v17c0,1.1,0.9,2,2,2h28c1.1,0,2-0.9,2-2v-17C32,2.033,31.1,1.133,30,1.133L30,1.133z"/></g></g><g display="inline"><g><g><line fill="#000000" stroke="#414753" stroke-miterlimit="10" x1="8.26" y1="5.813" x2="8.26" y2="16.726"/><polyline fill="#000000" stroke="#414753" stroke-miterlimit="10" points="4.622,13.088 8.26,16.726 11.898,13.088     "/></g></g></g><g display="inline"><g><g><line fill="#000000" stroke="#414753" stroke-miterlimit="10" x1="23.748" y1="17.433" x2="23.748" y2="6.52"/><polyline fill="#000000" stroke="#414753" stroke-miterlimit="10" points="27.385,10.158 23.748,6.52 20.11,10.158     "/></g></g></g><line display="inline" fill="#000000" stroke="#414753" stroke-miterlimit="10" x1="16" y1="2.008" x2="16" y2="21.5"/></g><g><path d="M25.25,29.283c0-0.871-0.712-1.583-1.583-1.583H22.5v-3.516h-13V27.7H8.333c-0.871,0-1.583,0.712-1.583,1.583   s0.713,1.583,1.583,1.583h15.333C24.538,30.867,25.25,30.154,25.25,29.283z M10.5,25.184h11V27.7h-11V25.184z M7.75,29.283   c0-0.316,0.267-0.583,0.583-0.583h15.333c0.316,0,0.583,0.267,0.583,0.583s-0.267,0.583-0.583,0.583H8.333   C8.017,29.867,7.75,29.6,7.75,29.283z"/><path d="M2,22.133h28c1.1,0,2-0.9,2-2v-17c0-1.1-0.9-2-2-2H2c-1.1,0-2,0.9-2,2v17C0,21.233,0.9,22.133,2,22.133z M31,3.133v17   c0,0.551-0.449,1-1,1H16.5v-19H30C30.551,2.133,31,2.582,31,3.133z M1,3.133c0-0.551,0.449-1,1-1h13.5v19H2c-0.551,0-1-0.449-1-1   V3.133z"/><polygon points="12.251,13.441 11.544,12.734 8.76,15.519 8.76,5.813 7.76,5.813 7.76,15.519 4.976,12.734 4.269,13.441    8.26,17.433  "/><polygon points="20.464,10.512 23.248,7.728 23.248,17.433 24.248,17.433 24.248,7.728 27.032,10.512 27.739,9.805 23.748,5.813    19.757,9.805  "/></g><g display="none"><rect x="-234.25" y="-44.848" display="inline" fill="#000000" width="438.484" height="214.333"/></g><g display="none"><path display="inline" d="M25.25,29.283c0-0.871-0.712-1.583-1.583-1.583H22.5v-3.516h-13V27.7H8.333   c-0.871,0-1.583,0.712-1.583,1.583s0.713,1.583,1.583,1.583h15.333C24.538,30.867,25.25,30.154,25.25,29.283z"/><path display="inline" d="M2,22.133h28c1.1,0,2-0.9,2-2v-17c0-1.1-0.9-2-2-2H2c-1.1,0-2,0.9-2,2v17C0,21.233,0.9,22.133,2,22.133z    M23.748,5.813l3.991,3.991l-0.707,0.707l-2.784-2.784v9.705h-1V7.728l-2.784,2.784l-0.707-0.707L23.748,5.813z M1,3.133   c0-0.551,0.449-1,1-1h13.5v19H2c-0.551,0-1-0.449-1-1V3.133z"/><polygon display="inline" points="12.251,13.441 11.544,12.734 8.76,15.519 8.76,5.813 7.76,5.813 7.76,15.519 4.976,12.734    4.269,13.441 8.26,17.433  "/></g><text x="0" y="47" fill="#000000" font-size="5px" font-weight="bold" font-family="'Helvetica Neue', Helvetica, Arial-Unicode, Arial, Sans-serif">Created by Alfredo @ IconsAlfredo.com</text><text x="0" y="52" fill="#000000" font-size="5px" font-weight="bold" font-family="'Helvetica Neue', Helvetica, Arial-Unicode, Arial, Sans-serif">from the Noun Project</text></svg>