<svg xmlns="http://www.w3.org/2000/svg" xmlns:xlink="http://www.w3.org/1999/xlink" version="1.0" x="0px" y="0px" viewBox="0 0 100 125" enable-background="new 0 0 100 100" xml:space="preserve"><path d="M86.0365601,31.9026489c-2.9750977-3.4300537-7.8922729-5.1033936-12.0672607-6.4398193  c-3.2127075-1.0284424-10.1242676-2.562439-10.9887085-6.5911865c0.0817261-1.1223755,0.1750488-2.2443848,0.2392578-3.3670654  c0.3254395-5.6893921-8.4533081-6.7418823-9.8214111-1.3292236c-0.4128418,1.6333618-0.5285645,3.2055054-0.4047852,4.7059326  c-0.9828491,12.9400024-3.3461914,25.6600952-7.0006104,38.0632324c-8.3353882-3.763855-19.1970215-0.4098511-24.319397,7.5483398  c-6.9180298,10.7479248-1.8074951,25.3666382,11.7960815,26.2836914  c13.4032593,0.9035034,18.3134155-18.8609009,21.3132935-28.223877c3.2532349-10.1536255,5.4971313-20.6245117,6.9136963-31.2006836  c0.805603,0.4732666,1.6429443,0.9049683,2.5093384,1.2828979c3.6665039,1.5992432,7.6408691,2.3416138,11.2779541,3.996582  c2.196228,0.9993896,7.3922729,5.192627,3.3359985,7.1733398c-5.7942505,2.8295288-0.7228394,11.4523926,5.0471802,8.6347656  C92.1693726,48.385437,91.2941284,37.9641724,86.0365601,31.9026489z M36.6977539,79.1118774  c-2.8895264,3.1717529-6.9208984,1.0844116-8.1966553-2.4561768c-2.6851807-7.4519043,8.4101562-13.9084473,14.3500366-10.0230713  c-0.4511108,1.2756348-0.9119873,2.548584-1.390564,3.8166504C40.2904663,73.5496826,38.9502563,76.6394043,36.6977539,79.1118774z"/><text x="0" y="115" fill="#000000" font-size="5px" font-weight="bold" font-family="'Helvetica Neue', Helvetica, Arial-Unicode, Arial, Sans-serif">Created by Alex Tai</text><text x="0" y="120" fill="#000000" font-size="5px" font-weight="bold" font-family="'Helvetica Neue', Helvetica, Arial-Unicode, Arial, Sans-serif">from the Noun Project</text></svg>