<svg xmlns="http://www.w3.org/2000/svg" data-name="Layer 1" viewBox="0 0 128 160" x="0px" y="0px"><title>entetainment 2 final line black</title><path d="M100.33,98.88a1,1,0,0,0-1.27.63,35.94,35.94,0,0,1-68.13,0,1,1,0,1,0-1.89.65,37.93,37.93,0,0,0,71.91,0A1,1,0,0,0,100.33,98.88Z"/><path d="M54.95,91.59A1,1,0,0,0,54,92.67a11,11,0,0,0,21.93,0,1,1,0,1,0-2-.16,9,9,0,0,1-17.95,0A1,1,0,0,0,54.95,91.59Z"/><path d="M95,87.49V45.36a1,1,0,1,0-2,0V87.49a1,1,0,1,0,2,0Z"/><path d="M99,81.39V51.45a1,1,0,1,0-2,0V81.39a1,1,0,1,0,2,0Z"/><path d="M31,81.39V51.45a1,1,0,1,0-2,0V81.39a1,1,0,1,0,2,0Z"/><path d="M91,96.11V39.75a1,1,0,1,0-2,0V96.11a1,1,0,1,0,2,0Z"/><path d="M87,80.89V52a1,1,0,1,0-2,0V80.89a1,1,0,1,0,2,0Z"/><path d="M83,86V46.88a1,1,0,1,0-2,0V86a1,1,0,1,0,2,0Z"/><path d="M79,76.32V56.52a1,1,0,1,0-2,0v19.8a1,1,0,1,0,2,0Z"/><path d="M75,79.87V53a1,1,0,1,0-2,0v26.9a1,1,0,1,0,2,0Z"/><path d="M71,84.95V47.89a1,1,0,1,0-2,0V84.95a1,1,0,1,0,2,0Z"/><path d="M26,58.56a1,1,0,0,0-1,1v13.7a1,1,0,1,0,2,0V59.57A1,1,0,0,0,26,58.56Z"/><path d="M102,58.56a1,1,0,0,0-1,1v13.7a1,1,0,1,0,2,0V59.57A1,1,0,0,0,102,58.56Z"/><path d="M35,87.49V45.36a1,1,0,1,0-2,0V87.49a1,1,0,1,0,2,0Z"/><path d="M39,96.11V39.75a1,1,0,1,0-2,0V96.11a1,1,0,1,0,2,0Z"/><path d="M43,89.07V45.79a1,1,0,1,0-2,0V89.07a1,1,0,1,0,2,0Z"/><path d="M51,80.89V52a1,1,0,1,0-2,0V80.89a1,1,0,1,0,2,0Z"/><path d="M47,79.51V53.34a1,1,0,1,0-2,0V79.51a1,1,0,1,0,2,0Z"/><path d="M54,45.87a1,1,0,0,0-1,1V86a1,1,0,1,0,2,0V46.88A1,1,0,0,0,54,45.87Z"/><path d="M59,76.32V56.52a1,1,0,1,0-2,0v19.8a1,1,0,1,0,2,0Z"/><path d="M63,79.87V53a1,1,0,1,0-2,0v26.9a1,1,0,1,0,2,0Z"/><path d="M67,84.95V47.89a1,1,0,1,0-2,0V84.95a1,1,0,1,0,2,0Z"/><path d="M64,2C28.71,2,0,30.9,0,66.42a1,1,0,0,0,1,1H4.48v0A12.56,12.56,0,0,0,15,79.86a3,3,0,0,0,3,2.69h2a3,3,0,0,0,3-3V52.35a3,3,0,0,0-3-3H18A3,3,0,0,0,15,52,12.56,12.56,0,0,0,4.48,64.43v1H2C2.54,31.46,30.15,4,64,4s61.46,27.45,62,61.4h-2v-1A12.56,12.56,0,0,0,113.45,52a3,3,0,0,0-3-2.69h-2a3,3,0,0,0-3,3V79.53a3,3,0,0,0,3,3h2a3,3,0,0,0,3-2.69A12.56,12.56,0,0,0,124,67.45v0h3a1,1,0,0,0,1-1C128,30.9,99.29,2,64,2ZM17,52.35a1,1,0,0,1,1-1h2a1,1,0,0,1,1,1V79.53a1,1,0,0,1-1,1H18a1,1,0,0,1-1-1ZM6.48,64.43A10.57,10.57,0,0,1,15,54.06V77.82a10.57,10.57,0,0,1-8.5-10.37Zm105,15.1a1,1,0,0,1-1,1h-2a1,1,0,0,1-1-1V52.35a1,1,0,0,1,1-1h2a1,1,0,0,1,1,1ZM122,67.45a10.57,10.57,0,0,1-8.5,10.37V54.06A10.57,10.57,0,0,1,122,64.43Z"/><text x="0" y="143" fill="#000000" font-size="5px" font-weight="bold" font-family="'Helvetica Neue', Helvetica, Arial-Unicode, Arial, Sans-serif">Created by priyanka</text><text x="0" y="148" fill="#000000" font-size="5px" font-weight="bold" font-family="'Helvetica Neue', Helvetica, Arial-Unicode, Arial, Sans-serif">from the Noun Project</text></svg>